OHamburgC-BlackItalic.ufo
<glyph name="exclam" format="2">
  <advance width="251"/>
  <unicode hex="0021"/>
  <outline>
    <contour>
      <point x="60" y="-28" type="curve" smooth="yes"/>
      <point x="94" y="-28"/>
      <point x="123" y="0"/>
      <point x="139" y="34" type="curve" smooth="yes"/>
      <point x="155" y="68"/>
      <point x="134" y="96"/>
      <point x="94" y="96" type="curve" smooth="yes"/>
      <point x="60" y="96"/>
      <point x="25" y="68"/>
      <point x="15" y="34" type="curve" smooth="yes"/>
      <point x="5" y="0"/>
      <point x="26" y="-28"/>
    </contour>
    <contour>
      <point x="80" y="176" type="curve"/>
      <point x="158" y="184" type="line"/>
      <point x="194" y="319"/>
      <point x="247" y="475"/>
      <point x="306" y="630" type="curve"/>
      <point x="179" y="618" type="line"/>
      <point x="155" y="467"/>
      <point x="121" y="307"/>
    </contour>
  </outline>
</glyph>
<glyph name="ampersand" format="2">
  <advance width="917"/>
  <unicode hex="0026"/>
  <outline>
    <contour>
      <point x="218" y="-10" type="curve" smooth="yes"/>
      <point x="381" y="-10"/>
      <point x="570" y="136"/>
      <point x="662" y="343" type="curve"/>
      <point x="644" y="358" type="line"/>
      <point x="558" y="179"/>
      <point x="374" y="39"/>
      <point x="260" y="39" type="curve" smooth="yes"/>
      <point x="189" y="39"/>
      <point x="153" y="74"/>
      <point x="135" y="115" type="curve"/>
      <point x="232" y="151"/>
      <point x="320" y="231"/>
      <point x="338" y="294" type="curve" smooth="yes"/>
      <point x="355" y="355"/>
      <point x="326" y="397"/>
      <point x="254" y="397" type="curve" smooth="yes"/>
      <point x="173" y="397"/>
      <point x="95" y="326"/>
      <point x="66" y="224" type="curve" smooth="yes"/>
      <point x="27" y="86"/>
      <point x="84" y="-10"/>
    </contour>
    <contour>
      <point x="131" y="236" type="curve" smooth="yes"/>
      <point x="149" y="301"/>
      <point x="204" y="367"/>
      <point x="245" y="367" type="curve" smooth="yes"/>
      <point x="276" y="367"/>
      <point x="285" y="322"/>
      <point x="271" y="272" type="curve" smooth="yes"/>
      <point x="256" y="218"/>
      <point x="189" y="154"/>
      <point x="127" y="134" type="curve"/>
      <point x="119" y="163"/>
      <point x="122" y="205"/>
    </contour>
    <contour>
      <point x="739" y="220" type="curve" smooth="yes"/>
      <point x="774" y="220"/>
      <point x="811" y="255"/>
      <point x="825" y="304" type="curve" smooth="yes"/>
      <point x="846" y="381"/>
      <point x="839" y="435"/>
      <point x="808" y="435" type="curve" smooth="yes"/>
      <point x="787" y="435"/>
      <point x="764" y="414"/>
      <point x="755" y="384" type="curve" smooth="yes"/>
      <point x="743" y="341"/>
      <point x="822" y="341"/>
      <point x="812" y="304" type="curve" smooth="yes"/>
      <point x="806" y="283"/>
      <point x="769" y="258"/>
      <point x="752" y="258" type="curve" smooth="yes"/>
      <point x="715" y="258"/>
      <point x="645" y="406"/>
      <point x="555" y="406" type="curve" smooth="yes"/>
      <point x="476" y="406"/>
      <point x="432" y="374"/>
      <point x="415" y="313" type="curve" smooth="yes"/>
      <point x="400" y="258"/>
      <point x="420" y="221"/>
      <point x="462" y="221" type="curve" smooth="yes"/>
      <point x="490" y="221"/>
      <point x="515" y="239"/>
      <point x="524" y="268" type="curve" smooth="yes"/>
      <point x="528" y="283"/>
      <point x="514" y="292"/>
      <point x="492" y="292" type="curve" smooth="yes"/>
      <point x="456" y="292"/>
      <point x="435" y="310"/>
      <point x="442" y="334" type="curve" smooth="yes"/>
      <point x="447" y="353"/>
      <point x="475" y="368"/>
      <point x="508" y="368" type="curve" smooth="yes"/>
      <point x="580" y="368"/>
      <point x="663" y="220"/>
    </contour>
  </outline>
</glyph>
<glyph name="parenleft" format="2">
  <advance width="311"/>
  <unicode hex="0028"/>
  <outline>
    <contour>
      <point x="209" y="281" type="curve" smooth="yes"/>
      <point x="253" y="437"/>
      <point x="355" y="607"/>
      <point x="443" y="692" type="curve"/>
      <point x="395" y="720" type="line"/>
      <point x="278" y="634"/>
      <point x="159" y="452"/>
      <point x="111" y="281" type="curve" smooth="yes"/>
      <point x="63" y="110"/>
      <point x="80" y="-72"/>
      <point x="149" y="-158" type="curve"/>
      <point x="211" y="-130" type="line"/>
      <point x="171" y="-45"/>
      <point x="165" y="125"/>
    </contour>
  </outline>
</glyph>
<glyph name="parenright" format="2">
  <advance width="322"/>
  <unicode hex="0029"/>
  <outline>
    <contour>
      <point x="155" y="281" type="curve" smooth="yes"/>
      <point x="111" y="125"/>
      <point x="9" y="-45"/>
      <point x="-79" y="-130" type="curve"/>
      <point x="-31" y="-158" type="line"/>
      <point x="86" y="-72"/>
      <point x="205" y="110"/>
      <point x="253" y="281" type="curve" smooth="yes"/>
      <point x="301" y="452"/>
      <point x="284" y="634"/>
      <point x="215" y="720" type="curve"/>
      <point x="153" y="692" type="line"/>
      <point x="193" y="607"/>
      <point x="199" y="437"/>
    </contour>
  </outline>
</glyph>
<glyph name="hyphen" format="2">
  <advance width="304"/>
  <unicode hex="002D"/>
  <outline>
    <contour>
      <point x="36" y="223" type="line"/>
      <point x="270" y="223" type="line"/>
      <point x="287" y="285" type="line"/>
      <point x="53" y="285" type="line"/>
    </contour>
  </outline>
</glyph>
<glyph name="five" format="2">
  <advance width="515"/>
  <unicode hex="0035"/>
  <outline>
    <contour>
      <point x="-32" y="-233" type="line"/>
      <point x="146" y="-186"/>
      <point x="298" y="-60"/>
      <point x="311" y="52" type="curve" smooth="yes"/>
      <point x="321" y="129"/>
      <point x="257" y="237"/>
      <point x="167" y="295" type="curve"/>
      <point x="158" y="269" type="line"/>
      <point x="247" y="406" type="line"/>
      <point x="208" y="379" type="line"/>
      <point x="272" y="386"/>
      <point x="380" y="383"/>
      <point x="450" y="373" type="curve"/>
      <point x="498" y="435" type="line"/>
      <point x="234" y="435" type="line"/>
      <point x="118" y="252" type="line"/>
      <point x="203" y="192"/>
      <point x="263" y="92"/>
      <point x="253" y="26" type="curve" smooth="yes"/>
      <point x="241" y="-59"/>
      <point x="111" y="-162"/>
      <point x="-40" y="-208" type="curve"/>
    </contour>
  </outline>
</glyph>
<glyph name="eight" format="2">
  <advance width="452"/>
  <unicode hex="0038"/>
  <outline>
    <contour>
      <point x="191" y="-16" type="line"/>
      <point x="296" y="-16"/>
      <point x="364" y="63"/>
      <point x="369" y="150" type="curve" smooth="yes"/>
      <point x="379" y="318"/>
      <point x="203" y="383"/>
      <point x="205" y="515" type="curve" smooth="yes"/>
      <point x="206" y="584"/>
      <point x="265" y="614"/>
      <point x="335" y="614" type="curve"/>
      <point x="334" y="647" type="line"/>
      <point x="242" y="647"/>
      <point x="171" y="586"/>
      <point x="163" y="499" type="curve" smooth="yes"/>
      <point x="146" y="326"/>
      <point x="335" y="243"/>
      <point x="330" y="129" type="curve" smooth="yes"/>
      <point x="327" y="59"/>
      <point x="273" y="17"/>
      <point x="190" y="17" type="curve"/>
    </contour>
    <contour>
      <point x="191" y="-16" type="curve"/>
      <point x="190" y="17" type="line"/>
      <point x="139" y="17"/>
      <point x="94" y="67"/>
      <point x="100" y="138" type="curve" smooth="yes"/>
      <point x="104" y="189"/>
      <point x="163" y="260"/>
      <point x="256" y="308" type="curve"/>
      <point x="231" y="323" type="line"/>
      <point x="122" y="269"/>
      <point x="49" y="189"/>
      <point x="42" y="131" type="curve" smooth="yes"/>
      <point x="32" y="45"/>
      <point x="101" y="-16"/>
    </contour>
    <contour>
      <point x="334" y="647" type="curve"/>
      <point x="335" y="614" type="line"/>
      <point x="378" y="614"/>
      <point x="423" y="569"/>
      <point x="416" y="505" type="curve" smooth="yes"/>
      <point x="410" y="453"/>
      <point x="356" y="381"/>
      <point x="263" y="332" type="curve"/>
      <point x="287" y="317" type="line"/>
      <point x="397" y="371"/>
      <point x="469" y="452"/>
      <point x="474" y="512" type="curve" smooth="yes"/>
      <point x="481" y="591"/>
      <point x="415" y="647"/>
    </contour>
  </outline>
</glyph>
<glyph name="colon" format="2">
  <advance width="263"/>
  <unicode hex="003A"/>
  <outline>
    <contour>
      <point x="154" y="316" type="curve"/>
      <point x="184" y="309"/>
      <point x="209" y="324"/>
      <point x="220" y="349" type="curve" smooth="yes"/>
      <point x="231" y="373"/>
      <point x="223" y="398"/>
      <point x="193" y="405" type="curve" smooth="yes"/>
      <point x="162" y="412"/>
      <point x="137" y="397"/>
      <point x="127" y="373" type="curve" smooth="yes"/>
      <point x="116" y="348"/>
      <point x="123" y="323"/>
    </contour>
    <contour>
      <point x="76" y="16" type="curve"/>
      <point x="106" y="9"/>
      <point x="131" y="24"/>
      <point x="142" y="49" type="curve" smooth="yes"/>
      <point x="152" y="73"/>
      <point x="144" y="98"/>
      <point x="114" y="105" type="curve" smooth="yes"/>
      <point x="84" y="112"/>
      <point x="59" y="97"/>
      <point x="48" y="73" type="curve" smooth="yes"/>
      <point x="37" y="48"/>
      <point x="44" y="23"/>
    </contour>
  </outline>
</glyph>
<glyph name="F" format="2">
  <advance width="505"/>
  <unicode hex="0046"/>
  <anchor x="197" y="0" name="bottom"/>
  <anchor x="407" y="616" name="top"/>
  <outline>
    <contour>
      <point x="-18" y="-1" type="line"/>
      <point x="9" y="0"/>
      <point x="215" y="0"/>
      <point x="270" y="0" type="curve"/>
      <point x="268" y="29" type="line"/>
      <point x="217" y="35"/>
      <point x="184" y="35"/>
      <point x="171" y="54" type="curve" smooth="yes"/>
      <point x="165" y="64"/>
      <point x="164" y="79"/>
      <point x="171" y="103" type="curve" smooth="yes"/>
      <point x="210" y="260"/>
      <point x="254" y="421"/>
      <point x="298" y="578" type="curve"/>
      <point x="320" y="579"/>
      <point x="379" y="580"/>
      <point x="401" y="580" type="curve" smooth="yes"/>
      <point x="429" y="580"/>
      <point x="459" y="580"/>
      <point x="490" y="578" type="curve" smooth="yes"/>
      <point x="515" y="576"/>
      <point x="529" y="544"/>
      <point x="524" y="499" type="curve"/>
      <point x="548" y="499" type="line"/>
      <point x="561" y="536"/>
      <point x="580" y="586"/>
      <point x="597" y="619" type="curve"/>
      <point x="531" y="617"/>
      <point x="396" y="616"/>
      <point x="276" y="616" type="curve"/>
      <point x="227" y="616"/>
      <point x="176" y="617"/>
      <point x="148" y="618" type="curve"/>
      <point x="141" y="592" type="line"/>
      <point x="173" y="586"/>
      <point x="196" y="584"/>
      <point x="208" y="572" type="curve" smooth="yes"/>
      <point x="215" y="563"/>
      <point x="217" y="550"/>
      <point x="210" y="525" type="curve" smooth="yes"/>
      <point x="174" y="380"/>
      <point x="135" y="236"/>
      <point x="95" y="91" type="curve" smooth="yes"/>
      <point x="88" y="67"/>
      <point x="81" y="53"/>
      <point x="70" y="44" type="curve" smooth="yes"/>
      <point x="53" y="30"/>
      <point x="29" y="27"/>
      <point x="-12" y="23" type="curve"/>
    </contour>
    <contour>
      <point x="388" y="206" type="line"/>
      <point x="408" y="206" type="line"/>
      <point x="419" y="272"/>
      <point x="444" y="364"/>
      <point x="467" y="430" type="curve"/>
      <point x="446" y="430" type="line"/>
      <point x="444" y="424"/>
      <point x="435" y="410"/>
      <point x="426" y="396" type="curve"/>
      <point x="400" y="360"/>
      <point x="371" y="336"/>
      <point x="329" y="336" type="curve" smooth="yes"/>
      <point x="195" y="336" type="line"/>
      <point x="183" y="296" type="line"/>
      <point x="317" y="296" type="line" smooth="yes"/>
      <point x="366" y="296"/>
      <point x="383" y="274"/>
      <point x="386" y="242" type="curve" smooth="yes"/>
    </contour>
  </outline>
</glyph>
<glyph name="G" format="2">
  <advance width="725"/>
  <unicode hex="0047"/>
  <anchor x="298" y="0" name="bottom"/>
  <anchor x="508" y="616" name="top"/>
  <outline>
    <contour>
      <point x="364" y="-8" type="curve" smooth="yes"/>
      <point x="437" y="-8"/>
      <point x="531" y="13"/>
      <point x="591" y="43" type="curve"/>
      <point x="590" y="56" type="line"/>
      <point x="573" y="57"/>
      <point x="564" y="66"/>
      <point x="568" y="79" type="curve"/>
      <point x="600" y="200" type="line"/>
      <point x="607" y="226"/>
      <point x="627" y="247"/>
      <point x="650" y="252" type="curve"/>
      <point x="688" y="258" type="line"/>
      <point x="695" y="287" type="line"/>
      <point x="453" y="287" type="line"/>
      <point x="444" y="253" type="line"/>
      <point x="499" y="244"/>
      <point x="532" y="217"/>
      <point x="524" y="188" type="curve"/>
      <point x="495" y="76" type="line"/>
      <point x="487" y="50"/>
      <point x="447" y="32"/>
      <point x="397" y="32" type="curve" smooth="yes"/>
      <point x="240" y="32"/>
      <point x="144" y="175"/>
      <point x="164" y="376" type="curve" smooth="yes"/>
      <point x="177" y="500"/>
      <point x="277" y="588"/>
      <point x="406" y="588" type="curve" smooth="yes"/>
      <point x="530" y="588"/>
      <point x="612" y="510"/>
      <point x="603" y="400" type="curve"/>
      <point x="631" y="400" type="line"/>
      <point x="652" y="478"/>
      <point x="670" y="541"/>
      <point x="674" y="551" type="curve"/>
      <point x="615" y="596"/>
      <point x="513" y="628"/>
      <point x="426" y="628" type="curve" smooth="yes"/>
      <point x="258" y="628"/>
      <point x="117" y="514"/>
      <point x="86" y="352" type="curve" smooth="yes"/>
      <point x="46" y="141"/>
      <point x="161" y="-8"/>
    </contour>
  </outline>
</glyph>
<glyph name="H" format="2">
  <advance width="780"/>
  <unicode hex="0048"/>
  <anchor x="326" y="0" name="bottom"/>
  <anchor x="483" y="462" name="center"/>
  <anchor x="536" y="616" name="top"/>
  <anchor x="163" y="616" name="topleft"/>
  <outline>
    <contour>
      <point x="-31" y="0" type="line"/>
      <point x="59" y="2"/>
      <point x="160" y="2"/>
      <point x="250" y="0" type="curve"/>
      <point x="258" y="23" type="line"/>
      <point x="229" y="31"/>
      <point x="187" y="37"/>
      <point x="180" y="49" type="curve" smooth="yes"/>
      <point x="172" y="59"/>
      <point x="162" y="75"/>
      <point x="169" y="102" type="curve" smooth="yes"/>
      <point x="187" y="176"/>
      <point x="207" y="250"/>
      <point x="224" y="326" type="curve" smooth="yes"/>
      <point x="238" y="389"/>
      <point x="259" y="452"/>
      <point x="277" y="514" type="curve" smooth="yes"/>
      <point x="285" y="541"/>
      <point x="304" y="560"/>
      <point x="316" y="567" type="curve" smooth="yes"/>
      <point x="340" y="582"/>
      <point x="375" y="585"/>
      <point x="408" y="593" type="curve"/>
      <point x="414" y="616" type="line"/>
      <point x="323" y="614"/>
      <point x="223" y="614"/>
      <point x="134" y="616" type="curve"/>
      <point x="128" y="593" type="line"/>
      <point x="158" y="587"/>
      <point x="197" y="574"/>
      <point x="205" y="562" type="curve" smooth="yes"/>
      <point x="211" y="551"/>
      <point x="213" y="540"/>
      <point x="206" y="514" type="curve" smooth="yes"/>
      <point x="191" y="452"/>
      <point x="172" y="390"/>
      <point x="157" y="327" type="curve" smooth="yes"/>
      <point x="139" y="251"/>
      <point x="118" y="176"/>
      <point x="98" y="102" type="curve" smooth="yes"/>
      <point x="91" y="76"/>
      <point x="83" y="61"/>
      <point x="71" y="50" type="curve" smooth="yes"/>
      <point x="56" y="38"/>
      <point x="-1" y="31"/>
      <point x="-25" y="23" type="curve"/>
    </contour>
    <contour>
      <point x="430" y="0" type="line"/>
      <point x="520" y="2"/>
      <point x="617" y="2"/>
      <point x="707" y="0" type="curve"/>
      <point x="713" y="23" type="line"/>
      <point x="694" y="29"/>
      <point x="652" y="38"/>
      <point x="645" y="50" type="curve" smooth="yes"/>
      <point x="637" y="60"/>
      <point x="633" y="75"/>
      <point x="640" y="102" type="curve" smooth="yes"/>
      <point x="658" y="177"/>
      <point x="679" y="253"/>
      <point x="699" y="330" type="curve" smooth="yes"/>
      <point x="715" y="391"/>
      <point x="733" y="453"/>
      <point x="750" y="514" type="curve" smooth="yes"/>
      <point x="757" y="541"/>
      <point x="763" y="556"/>
      <point x="777" y="567" type="curve" smooth="yes"/>
      <point x="791" y="579"/>
      <point x="843" y="588"/>
      <point x="866" y="593" type="curve"/>
      <point x="872" y="616" type="line"/>
      <point x="781" y="614"/>
      <point x="683" y="614"/>
      <point x="594" y="616" type="curve"/>
      <point x="588" y="593" type="line"/>
      <point x="618" y="585"/>
      <point x="656" y="576"/>
      <point x="670" y="566" type="curve" smooth="yes"/>
      <point x="682" y="557"/>
      <point x="686" y="540"/>
      <point x="679" y="514" type="curve" smooth="yes"/>
      <point x="664" y="453"/>
      <point x="647" y="390"/>
      <point x="631" y="329" type="curve" smooth="yes"/>
      <point x="611" y="252"/>
      <point x="594" y="176"/>
      <point x="569" y="102" type="curve" smooth="yes"/>
      <point x="557" y="66"/>
      <point x="544" y="58"/>
      <point x="524" y="44" type="curve" smooth="yes"/>
      <point x="506" y="31"/>
      <point x="472" y="28"/>
      <point x="438" y="23" type="curve"/>
    </contour>
    <contour>
      <point x="197" y="304" type="line"/>
      <point x="644" y="304" type="line"/>
      <point x="658" y="349" type="line"/>
      <point x="209" y="349" type="line"/>
    </contour>
  </outline>
</glyph>
<glyph name="J" format="2">
  <advance width="296"/>
  <unicode hex="004A"/>
  <anchor x="64" y="0" name="bottom"/>
  <anchor x="274" y="616" name="top"/>
  <outline>
    <contour>
      <point x="-113" y="-232" type="curve" smooth="yes"/>
      <point x="-79" y="-232"/>
      <point x="-16" y="-188"/>
      <point x="12" y="-164" type="curve" smooth="yes"/>
      <point x="78" y="-108"/>
      <point x="148" y="29"/>
      <point x="177" y="148" type="curve" smooth="yes"/>
      <point x="227" y="341"/>
      <point x="225" y="332"/>
      <point x="277" y="525" type="curve" smooth="yes"/>
      <point x="285" y="555"/>
      <point x="290" y="569"/>
      <point x="305" y="577" type="curve" smooth="yes"/>
      <point x="321" y="584"/>
      <point x="344" y="585"/>
      <point x="380" y="591" type="curve"/>
      <point x="387" y="616" type="line"/>
      <point x="135" y="616" type="line"/>
      <point x="128" y="591" type="line"/>
      <point x="162" y="587"/>
      <point x="195" y="586"/>
      <point x="208" y="574" type="curve" smooth="yes"/>
      <point x="216" y="565"/>
      <point x="217" y="551"/>
      <point x="210" y="525" type="curve" smooth="yes"/>
      <point x="93" y="81" type="line" smooth="yes"/>
      <point x="80" y="33"/>
      <point x="35" y="-90"/>
      <point x="-7" y="-138" type="curve" smooth="yes"/>
      <point x="-18" y="-150"/>
      <point x="-28" y="-157"/>
      <point x="-40" y="-157" type="curve" smooth="yes"/>
      <point x="-60" y="-158"/>
      <point x="-56" y="-135"/>
      <point x="-75" y="-134" type="curve" smooth="yes"/>
      <point x="-108" y="-134"/>
      <point x="-139" y="-163"/>
      <point x="-149" y="-205" type="curve" smooth="yes"/>
      <point x="-154" y="-220"/>
      <point x="-139" y="-232"/>
    </contour>
  </outline>
</glyph>
<glyph name="L" format="2">
  <advance width="603"/>
  <unicode hex="004C"/>
  <anchor x="242" y="0" name="bottom"/>
  <anchor x="347" y="308" name="center"/>
  <anchor x="452" y="616" name="top"/>
  <anchor x="736" y="616" name="topright"/>
  <outline>
    <contour>
      <point x="-12" y="23" type="curve"/>
      <point x="-19" y="-3" type="line"/>
      <point x="72" y="-1"/>
      <point x="152" y="0"/>
      <point x="232" y="0" type="curve"/>
      <point x="242" y="41" type="line"/>
      <point x="182" y="43"/>
      <point x="155" y="43"/>
      <point x="171" y="105" type="curve" smooth="yes"/>
      <point x="203" y="234"/>
      <point x="224" y="318"/>
      <point x="280" y="517" type="curve" smooth="yes"/>
      <point x="290" y="553"/>
      <point x="296" y="567"/>
      <point x="319" y="577" type="curve" smooth="yes"/>
      <point x="331" y="582"/>
      <point x="360" y="585"/>
      <point x="391" y="588" type="curve"/>
      <point x="398" y="616" type="line"/>
      <point x="148" y="616" type="line"/>
      <point x="142" y="592" type="line"/>
      <point x="175" y="587"/>
      <point x="197" y="585"/>
      <point x="208" y="576" type="curve" smooth="yes"/>
      <point x="217" y="568"/>
      <point x="217" y="554"/>
      <point x="210" y="525" type="curve" smooth="yes"/>
      <point x="175" y="382"/>
      <point x="135" y="234"/>
      <point x="94" y="91" type="curve" smooth="yes"/>
      <point x="86" y="63"/>
      <point x="79" y="49"/>
      <point x="66" y="40" type="curve" smooth="yes"/>
      <point x="51" y="30"/>
      <point x="29" y="29"/>
    </contour>
    <contour>
      <point x="232" y="0" type="line"/>
      <point x="294" y="2"/>
      <point x="405" y="1"/>
      <point x="473" y="-3" type="curve"/>
      <point x="538" y="102"/>
      <point x="587" y="177"/>
      <point x="587" y="177" type="curve"/>
      <point x="564" y="189" type="line"/>
      <point x="527" y="139"/>
      <point x="483" y="100"/>
      <point x="437" y="75" type="curve" smooth="yes"/>
      <point x="366" y="36"/>
      <point x="306" y="41"/>
      <point x="242" y="41" type="curve"/>
    </contour>
  </outline>
</glyph>
<glyph name="R" format="2">
  <advance width="603"/>
  <unicode hex="0052"/>
  <anchor x="255" y="0" name="bottom"/>
  <anchor x="465" y="616" name="top"/>
  <outline>
    <contour>
      <point x="215" y="282" type="line"/>
      <point x="400" y="282"/>
      <point x="538" y="369"/>
      <point x="549" y="478" type="curve" smooth="yes"/>
      <point x="558" y="568"/>
      <point x="496" y="620"/>
      <point x="400" y="618" type="curve"/>
      <point x="369" y="576" type="line"/>
      <point x="439" y="576"/>
      <point x="473" y="537"/>
      <point x="471" y="466" type="curve" smooth="yes"/>
      <point x="469" y="388"/>
      <point x="357" y="322"/>
      <point x="225" y="322" type="curve"/>
    </contour>
    <contour>
      <point x="-18" y="0" type="line"/>
      <point x="252" y="0" type="line"/>
      <point x="259" y="27" type="line"/>
      <point x="212" y="32"/>
      <point x="174" y="43"/>
      <point x="168" y="53" type="curve" smooth="yes"/>
      <point x="163" y="60"/>
      <point x="164" y="82"/>
      <point x="170" y="106" type="curve" smooth="yes"/>
      <point x="225" y="313"/>
      <point x="278" y="507"/>
      <point x="298" y="574" type="curve"/>
      <point x="369" y="576" type="line"/>
      <point x="400" y="618" type="line"/>
      <point x="341" y="617"/>
      <point x="289" y="616"/>
      <point x="273" y="616" type="curve"/>
      <point x="263" y="616"/>
      <point x="212" y="617"/>
      <point x="148" y="618" type="curve"/>
      <point x="141" y="592" type="line"/>
      <point x="178" y="584"/>
      <point x="207" y="574"/>
      <point x="211" y="567" type="curve" smooth="yes"/>
      <point x="215" y="558"/>
      <point x="213" y="535"/>
      <point x="207" y="512" type="curve" smooth="yes"/>
      <point x="181" y="408"/>
      <point x="136" y="239"/>
      <point x="99" y="104" type="curve" smooth="yes"/>
      <point x="91" y="76"/>
      <point x="78" y="51"/>
      <point x="68" y="44" type="curve" smooth="yes"/>
      <point x="61" y="39"/>
      <point x="28" y="31"/>
      <point x="-11" y="25" type="curve"/>
    </contour>
    <contour>
      <point x="579" y="0" type="line"/>
      <point x="579" y="18" type="line"/>
      <point x="501" y="27"/>
      <point x="420" y="159"/>
      <point x="334" y="327" type="curve"/>
      <point x="269" y="295" type="line"/>
      <point x="355" y="122"/>
      <point x="431" y="-6"/>
      <point x="501" y="-3" type="curve" smooth="yes"/>
    </contour>
  </outline>
</glyph>
<glyph name="U" format="2">
  <advance width="687"/>
  <unicode hex="0055"/>
  <anchor x="253" y="0" name="bottom"/>
  <anchor x="524" y="10" name="ogonek"/>
  <anchor x="463" y="616" name="top"/>
  <anchor x="778" y="616" name="topright"/>
  <outline>
    <contour>
      <point x="322" y="-11" type="curve" smooth="yes"/>
      <point x="458" y="-11"/>
      <point x="549" y="78"/>
      <point x="594" y="204" type="curve" smooth="yes"/>
      <point x="641" y="336"/>
      <point x="654" y="431"/>
      <point x="677" y="514" type="curve" smooth="yes"/>
      <point x="689" y="557"/>
      <point x="727" y="588"/>
      <point x="769" y="588" type="curve"/>
      <point x="776" y="616" type="line"/>
      <point x="558" y="616" type="line"/>
      <point x="552" y="592" type="line"/>
      <point x="618" y="582"/>
      <point x="640" y="536"/>
      <point x="626" y="481" type="curve" smooth="yes"/>
      <point x="604" y="393"/>
      <point x="578" y="278"/>
      <point x="551" y="208" type="curve" smooth="yes"/>
      <point x="513" y="108"/>
      <point x="446" y="36"/>
      <point x="333" y="36" type="curve" smooth="yes"/>
      <point x="224" y="36"/>
      <point x="156" y="100"/>
      <point x="165" y="188" type="curve" smooth="yes"/>
      <point x="172" y="255"/>
      <point x="210" y="385"/>
      <point x="242" y="503" type="curve" smooth="yes"/>
      <point x="255" y="551"/>
      <point x="303" y="588"/>
      <point x="358" y="592" type="curve"/>
      <point x="364" y="616" type="line"/>
      <point x="128" y="616" type="line"/>
      <point x="120" y="589" type="line"/>
      <point x="160" y="581"/>
      <point x="182" y="550"/>
      <point x="173" y="515" type="curve" smooth="yes"/>
      <point x="177" y="530"/>
      <point x="139" y="401"/>
      <point x="94" y="202" type="curve" smooth="yes"/>
      <point x="66" y="77"/>
      <point x="165" y="-11"/>
    </contour>
  </outline>
</glyph>
<glyph name="Z" format="2">
  <advance width="657"/>
  <unicode hex="005A"/>
  <anchor x="271" y="0" name="bottom"/>
  <anchor x="376" y="308" name="center"/>
  <anchor x="481" y="616" name="top"/>
  <outline>
    <contour>
      <point x="14" y="0" type="line"/>
      <point x="141" y="0"/>
      <point x="326" y="1"/>
      <point x="355" y="1" type="curve" smooth="yes"/>
      <point x="385" y="1"/>
      <point x="455" y="1"/>
      <point x="496" y="-2" type="curve"/>
      <point x="537" y="57"/>
      <point x="582" y="143"/>
      <point x="609" y="210" type="curve"/>
      <point x="575" y="210" type="line"/>
      <point x="550" y="154"/>
      <point x="478" y="43"/>
      <point x="329" y="41" type="curve" smooth="yes"/>
      <point x="126" y="38" type="line"/>
      <point x="122" y="24" type="line"/>
      <point x="684" y="594" type="line"/>
      <point x="679" y="621" type="line"/>
      <point x="601" y="616"/>
      <point x="446" y="615"/>
      <point x="398" y="615" type="curve" smooth="yes"/>
      <point x="350" y="615"/>
      <point x="249" y="611"/>
      <point x="210" y="617" type="curve"/>
      <point x="184" y="554"/>
      <point x="161" y="490"/>
      <point x="144" y="427" type="curve"/>
      <point x="172" y="427" type="line"/>
      <point x="196" y="479"/>
      <point x="210" y="576"/>
      <point x="345" y="576" type="curve" smooth="yes"/>
      <point x="420" y="576"/>
      <point x="526" y="574"/>
      <point x="583" y="572" type="curve"/>
      <point x="586" y="596" type="line"/>
      <point x="9" y="12" type="line"/>
    </contour>
  </outline>
</glyph>
<glyph name="bracketleft" format="2">
  <advance width="362"/>
  <unicode hex="005B"/>
  <outline>
    <contour>
      <point x="340" y="656" type="line"/>
      <point x="459" y="656" type="line"/>
      <point x="469" y="692" type="line"/>
      <point x="242" y="692" type="line"/>
      <point x="180" y="416"/>
      <point x="102" y="140"/>
      <point x="10" y="-136" type="curve"/>
      <point x="237" y="-136" type="line"/>
      <point x="247" y="-100" type="line"/>
      <point x="128" y="-100" type="line"/>
    </contour>
  </outline>
</glyph>
<glyph name="bracketright" format="2">
  <advance width="371"/>
  <unicode hex="005D"/>
  <outline>
    <contour>
      <point x="276" y="656" type="line"/>
      <point x="64" y="-100" type="line"/>
      <point x="-55" y="-100" type="line"/>
      <point x="-65" y="-136" type="line"/>
      <point x="162" y="-136" type="line"/>
      <point x="224" y="140"/>
      <point x="302" y="416"/>
      <point x="394" y="692" type="curve"/>
      <point x="167" y="692" type="line"/>
      <point x="157" y="656" type="line"/>
    </contour>
  </outline>
</glyph>
<glyph name="c" format="2">
  <advance width="343"/>
  <unicode hex="0063"/>
  <anchor x="123" y="0" name="bottom"/>
  <anchor x="217" y="402" name="top"/>
  <outline>
    <contour>
      <point x="114" y="-8" type="curve" smooth="yes"/>
      <point x="188" y="-8"/>
      <point x="247" y="35"/>
      <point x="285" y="95" type="curve"/>
      <point x="268" y="109" type="line"/>
      <point x="230" y="70"/>
      <point x="192" y="42"/>
      <point x="151" y="42" type="curve" smooth="yes"/>
      <point x="97" y="42"/>
      <point x="75" y="117"/>
      <point x="104" y="224" type="curve" smooth="yes"/>
      <point x="131" y="319"/>
      <point x="186" y="387"/>
      <point x="228" y="387" type="curve" smooth="yes"/>
      <point x="263" y="387"/>
      <point x="276" y="348"/>
      <point x="259" y="294" type="curve"/>
      <point x="258" y="283"/>
      <point x="263" y="275"/>
      <point x="271" y="275" type="curve" smooth="yes"/>
      <point x="302" y="275"/>
      <point x="329" y="292"/>
      <point x="336" y="316" type="curve" smooth="yes"/>
      <point x="350" y="373"/>
      <point x="310" y="414"/>
      <point x="240" y="414" type="curve" smooth="yes"/>
      <point x="154" y="414"/>
      <point x="69" y="326"/>
      <point x="35" y="201" type="curve" smooth="yes"/>
      <point x="2" y="79"/>
      <point x="35" y="-8"/>
    </contour>
  </outline>
</glyph>
<glyph name="k" format="2">
  <advance width="390"/>
  <unicode hex="006B"/>
  <outline>
    <contour>
      <point x="75" y="134" type="line"/>
      <point x="299" y="264" type="line" smooth="yes"/>
      <point x="347" y="291"/>
      <point x="376" y="337"/>
      <point x="372" y="373" type="curve" smooth="yes"/>
      <point x="369" y="397"/>
      <point x="347" y="414"/>
      <point x="317" y="414" type="curve" smooth="yes"/>
      <point x="242" y="414"/>
      <point x="159" y="358"/>
      <point x="119" y="280" type="curve"/>
      <point x="121" y="239" type="line"/>
      <point x="158" y="320"/>
      <point x="224" y="377"/>
      <point x="277" y="377" type="curve" smooth="yes"/>
      <point x="294" y="377"/>
      <point x="312" y="359"/>
      <point x="311" y="340" type="curve" smooth="yes"/>
      <point x="310" y="322"/>
      <point x="308" y="304"/>
      <point x="257" y="272" type="curve" smooth="yes"/>
      <point x="70" y="155" type="line"/>
    </contour>
    <contour>
      <point x="377" y="40" type="curve"/>
      <point x="355" y="62" type="line"/>
      <point x="343" y="46"/>
      <point x="329" y="35"/>
      <point x="316" y="35" type="curve" smooth="yes"/>
      <point x="286" y="35"/>
      <point x="247" y="117"/>
      <point x="222" y="233" type="curve"/>
      <point x="164" y="201" type="line"/>
      <point x="189" y="79"/>
      <point x="235" y="-8"/>
      <point x="275" y="-8" type="curve" smooth="yes"/>
      <point x="307" y="-8"/>
      <point x="349" y="12"/>
    </contour>
    <contour>
      <point x="-9" y="-8" type="curve"/>
      <point x="14" y="-9"/>
      <point x="43" y="-6"/>
      <point x="68" y="0" type="curve"/>
      <point x="88" y="66"/>
      <point x="133" y="242"/>
      <point x="153" y="308" type="curve" smooth="yes"/>
      <point x="176" y="385"/>
      <point x="201" y="461"/>
      <point x="224" y="538" type="curve"/>
      <point x="214" y="501"/>
      <point x="231" y="546"/>
      <point x="261" y="648" type="curve"/>
      <point x="217" y="641"/>
      <point x="157" y="636"/>
      <point x="117" y="636" type="curve"/>
      <point x="110" y="611" type="line"/>
      <point x="134" y="609"/>
      <point x="156" y="599"/>
      <point x="163" y="587" type="curve" smooth="yes"/>
      <point x="170" y="579"/>
      <point x="168" y="552"/>
      <point x="158" y="521" type="curve"/>
      <point x="138" y="455"/>
      <point x="118" y="389"/>
      <point x="98" y="323" type="curve" smooth="yes"/>
      <point x="55" y="182"/>
      <point x="11" y="45"/>
    </contour>
  </outline>
</glyph>
<glyph name="n" format="2">
  <advance width="455"/>
  <unicode hex="006E"/>
  <anchor x="157" y="0" name="bottom"/>
  <anchor x="265" y="402" name="top"/>
  <outline>
    <contour>
      <point x="20" y="-9" type="curve"/>
      <point x="49" y="-3"/>
      <point x="76" y="0"/>
      <point x="97" y="1" type="curve"/>
      <point x="117" y="59"/>
      <point x="148" y="177"/>
      <point x="185" y="332" type="curve" smooth="yes"/>
      <point x="196" y="384"/>
      <point x="184" y="413"/>
      <point x="152" y="413" type="curve" smooth="yes"/>
      <point x="119" y="413"/>
      <point x="61" y="366"/>
      <point x="14" y="297" type="curve"/>
      <point x="33" y="280" type="line"/>
      <point x="67" y="315"/>
      <point x="106" y="357"/>
      <point x="116" y="357" type="curve" smooth="yes"/>
      <point x="130" y="357"/>
      <point x="130" y="322"/>
      <point x="115" y="267" type="curve" smooth="yes"/>
      <point x="96" y="194"/>
      <point x="56" y="89"/>
    </contour>
    <contour>
      <point x="276" y="-8" type="curve" smooth="yes"/>
      <point x="315" y="-8"/>
      <point x="382" y="36"/>
      <point x="424" y="99" type="curve"/>
      <point x="408" y="114" type="line"/>
      <point x="375" y="77"/>
      <point x="343" y="56"/>
      <point x="330" y="56" type="curve" smooth="yes"/>
      <point x="319" y="56"/>
      <point x="325" y="91"/>
      <point x="345" y="145" type="curve" smooth="yes"/>
      <point x="391" y="267" type="line" smooth="yes"/>
      <point x="424" y="356"/>
      <point x="417" y="416"/>
      <point x="369" y="416" type="curve" smooth="yes"/>
      <point x="273" y="416"/>
      <point x="186" y="318"/>
      <point x="122" y="144" type="curve"/>
      <point x="97" y="25" type="line"/>
      <point x="164" y="226"/>
      <point x="262" y="361"/>
      <point x="335" y="365" type="curve" smooth="yes"/>
      <point x="358" y="366"/>
      <point x="348" y="323"/>
      <point x="323" y="259" type="curve" smooth="yes"/>
      <point x="259" y="97" type="line" smooth="yes"/>
      <point x="234" y="33"/>
      <point x="237" y="-8"/>
    </contour>
  </outline>
</glyph>
<glyph name="o" format="2">
  <advance width="408"/>
  <unicode hex="006F"/>
  <anchor x="145" y="0" name="bottom"/>
  <anchor x="199" y="201" name="center"/>
  <anchor x="306" y="10" name="ogonek"/>
  <anchor x="253" y="402" name="top"/>
  <anchor x="431" y="402" name="topright"/>
  <outline>
    <contour>
      <point x="134" y="-8" type="curve" smooth="yes"/>
      <point x="235" y="-8"/>
      <point x="329" y="76"/>
      <point x="361" y="195" type="curve" smooth="yes"/>
      <point x="396" y="324"/>
      <point x="357" y="415"/>
      <point x="265" y="415" type="curve" smooth="yes"/>
      <point x="164" y="415"/>
      <point x="70" y="331"/>
      <point x="38" y="212" type="curve" smooth="yes"/>
      <point x="3" y="83"/>
      <point x="42" y="-8"/>
    </contour>
    <contour>
      <point x="147" y="19" type="curve" smooth="yes"/>
      <point x="97" y="19"/>
      <point x="79" y="83"/>
      <point x="103" y="174" type="curve" smooth="yes"/>
      <point x="127" y="299"/>
      <point x="189" y="388"/>
      <point x="252" y="388" type="curve" smooth="yes"/>
      <point x="300" y="388"/>
      <point x="318" y="324"/>
      <point x="294" y="233" type="curve" smooth="yes"/>
      <point x="270" y="108"/>
      <point x="209" y="19"/>
    </contour>
  </outline>
</glyph>
<glyph name="p" format="2">
  <advance width="405"/>
  <unicode hex="0070"/>
  <anchor x="119" y="0" name="bottom"/>
  <anchor x="241" y="402" name="top"/>
  <outline>
    <contour>
      <point x="119" y="-8" type="curve" smooth="yes"/>
      <point x="231" y="-8"/>
      <point x="342" y="93"/>
      <point x="379" y="236" type="curve" smooth="yes"/>
      <point x="406" y="339"/>
      <point x="364" y="412"/>
      <point x="285" y="412" type="curve" smooth="yes"/>
      <point x="162" y="412"/>
      <point x="42" y="330"/>
      <point x="9" y="242" type="curve"/>
      <point x="25" y="235" type="line"/>
      <point x="72" y="316"/>
      <point x="159" y="383"/>
      <point x="247" y="383" type="curve" smooth="yes"/>
      <point x="307" y="383"/>
      <point x="333" y="315"/>
      <point x="306" y="220" type="curve" smooth="yes"/>
      <point x="277" y="112"/>
      <point x="186" y="29"/>
      <point x="103" y="29" type="curve" smooth="yes"/>
      <point x="86" y="29"/>
      <point x="64" y="41"/>
      <point x="48" y="59" type="curve"/>
      <point x="35" y="25" type="line"/>
      <point x="53" y="6"/>
      <point x="88" y="-8"/>
    </contour>
    <contour>
      <point x="-146" y="-212" type="line"/>
      <point x="105" y="-212" type="line"/>
      <point x="112" y="-187" type="line"/>
      <point x="73" y="-183"/>
      <point x="47" y="-176"/>
      <point x="38" y="-167" type="curve" smooth="yes"/>
      <point x="29" y="-159"/>
      <point x="27" y="-143"/>
      <point x="34" y="-121" type="curve" smooth="yes"/>
      <point x="235" y="504" type="line"/>
      <point x="210" y="493"/>
      <point x="186" y="487"/>
      <point x="161" y="484" type="curve"/>
      <point x="-33" y="-121" type="line" smooth="yes"/>
      <point x="-40" y="-142"/>
      <point x="-51" y="-160"/>
      <point x="-67" y="-171" type="curve" smooth="yes"/>
      <point x="-83" y="-178"/>
      <point x="-109" y="-184"/>
      <point x="-139" y="-187" type="curve"/>
    </contour>
  </outline>
</glyph>
<glyph name="q" format="2">
  <advance width="409"/>
  <unicode hex="0071"/>
  <anchor x="245" y="-193" name="bottom"/>
  <anchor x="261" y="402" name="top"/>
  <outline>
    <contour>
      <point x="65" y="-10" type="curve" smooth="yes"/>
      <point x="130" y="-10"/>
      <point x="209" y="53"/>
      <point x="287" y="208" type="curve"/>
      <point x="277" y="249" type="line"/>
      <point x="219" y="132"/>
      <point x="147" y="46"/>
      <point x="106" y="46" type="curve" smooth="yes"/>
      <point x="78" y="46"/>
      <point x="73" y="99"/>
      <point x="88" y="158" type="curve" smooth="yes"/>
      <point x="122" y="286"/>
      <point x="189" y="366"/>
      <point x="253" y="366" type="curve" smooth="yes"/>
      <point x="274" y="366"/>
      <point x="295" y="355"/>
      <point x="305" y="333" type="curve"/>
      <point x="332" y="388" type="line"/>
      <point x="316" y="396"/>
      <point x="293" y="402"/>
      <point x="278" y="402" type="curve" smooth="yes"/>
      <point x="169" y="402"/>
      <point x="60" y="286"/>
      <point x="14" y="121" type="curve" smooth="yes"/>
      <point x="-7" y="44"/>
      <point x="14" y="-10"/>
    </contour>
    <contour>
      <point x="44" y="-212" type="line"/>
      <point x="295" y="-212" type="line"/>
      <point x="302" y="-187" type="line"/>
      <point x="263" y="-183"/>
      <point x="237" y="-176"/>
      <point x="228" y="-167" type="curve" smooth="yes"/>
      <point x="219" y="-159"/>
      <point x="217" y="-143"/>
      <point x="224" y="-121" type="curve" smooth="yes"/>
      <point x="399" y="412" type="line"/>
      <point x="374" y="404"/>
      <point x="358" y="399"/>
      <point x="327" y="400" type="curve"/>
      <point x="157" y="-121" type="line" smooth="yes"/>
      <point x="150" y="-142"/>
      <point x="139" y="-160"/>
      <point x="123" y="-171" type="curve" smooth="yes"/>
      <point x="107" y="-178"/>
      <point x="81" y="-184"/>
      <point x="51" y="-187" type="curve"/>
    </contour>
  </outline>
</glyph>
<glyph name="r" format="2">
  <advance width="333"/>
  <unicode hex="0072"/>
  <anchor x="124" y="0" name="bottom"/>
  <anchor x="218" y="402" name="top"/>
  <outline>
    <contour>
      <point x="19" y="-10" type="curve"/>
      <point x="48" y="-11"/>
      <point x="76" y="-7"/>
      <point x="96" y="0" type="curve"/>
      <point x="115" y="73"/>
      <point x="135" y="128"/>
      <point x="148" y="176" type="curve" smooth="yes"/>
      <point x="168" y="250"/>
      <point x="181" y="306"/>
      <point x="185" y="332" type="curve" smooth="yes"/>
      <point x="194" y="384"/>
      <point x="183" y="413"/>
      <point x="156" y="413" type="curve" smooth="yes"/>
      <point x="125" y="413"/>
      <point x="73" y="372"/>
      <point x="14" y="297" type="curve"/>
      <point x="33" y="280" type="line"/>
      <point x="69" y="322"/>
      <point x="104" y="357"/>
      <point x="117" y="357" type="curve" smooth="yes"/>
      <point x="131" y="357"/>
      <point x="130" y="324"/>
      <point x="115" y="266" type="curve" smooth="yes"/>
      <point x="89" y="173"/>
      <point x="49" y="68"/>
    </contour>
    <contour>
      <point x="105" y="33" type="line"/>
      <point x="154" y="223"/>
      <point x="211" y="328"/>
      <point x="265" y="328" type="curve" smooth="yes"/>
      <point x="271" y="328"/>
      <point x="275" y="325"/>
      <point x="281" y="322" type="curve" smooth="yes"/>
      <point x="286" y="320"/>
      <point x="291" y="318"/>
      <point x="299" y="318" type="curve" smooth="yes"/>
      <point x="322" y="318"/>
      <point x="340" y="339"/>
      <point x="350" y="376" type="curve" smooth="yes"/>
      <point x="356" y="400"/>
      <point x="343" y="413"/>
      <point x="314" y="413" type="curve" smooth="yes"/>
      <point x="243" y="413"/>
      <point x="165" y="300"/>
      <point x="96" y="98" type="curve"/>
    </contour>
  </outline>
</glyph>
<glyph name="s" format="2">
  <advance width="297"/>
  <unicode hex="0073"/>
  <anchor x="123" y="0" name="bottom"/>
  <anchor x="217" y="402" name="top"/>
  <outline>
    <contour>
      <point x="158" y="65" type="curve" smooth="yes"/>
      <point x="149" y="33"/>
      <point x="124" y="13"/>
      <point x="95" y="13" type="curve" smooth="yes"/>
      <point x="65" y="13"/>
      <point x="51" y="43"/>
      <point x="64" y="86" type="curve"/>
      <point x="72" y="104"/>
      <point x="68" y="117"/>
      <point x="53" y="117" type="curve" smooth="yes"/>
      <point x="27" y="117"/>
      <point x="6" y="97"/>
      <point x="-1" y="68" type="curve" smooth="yes"/>
      <point x="-14" y="20"/>
      <point x="22" y="-14"/>
      <point x="88" y="-14" type="curve" smooth="yes"/>
      <point x="155" y="-14"/>
      <point x="212" y="32"/>
      <point x="223" y="94" type="curve" smooth="yes"/>
      <point x="240" y="187"/>
      <point x="121" y="233"/>
      <point x="151" y="353" type="curve" smooth="yes"/>
      <point x="157" y="373"/>
      <point x="175" y="386"/>
      <point x="203" y="386" type="curve" smooth="yes"/>
      <point x="228" y="386"/>
      <point x="241" y="362"/>
      <point x="227" y="327" type="curve" smooth="yes"/>
      <point x="222" y="314"/>
      <point x="236" y="305"/>
      <point x="247" y="305" type="curve" smooth="yes"/>
      <point x="271" y="305"/>
      <point x="283" y="322"/>
      <point x="290" y="345" type="curve" smooth="yes"/>
      <point x="302" y="385"/>
      <point x="271" y="413"/>
      <point x="215" y="413" type="curve" smooth="yes"/>
      <point x="155" y="413"/>
      <point x="104" y="378"/>
      <point x="93" y="337" type="curve" smooth="yes"/>
      <point x="57" y="206"/>
      <point x="189" y="170"/>
    </contour>
  </outline>
</glyph>
<glyph name="u" format="2">
  <advance width="454"/>
  <unicode hex="0075"/>
  <anchor x="184" y="0" name="bottom"/>
  <anchor x="374" y="10" name="ogonek"/>
  <anchor x="278" y="402" name="top"/>
  <anchor x="492" y="402" name="topright"/>
  <outline>
    <contour>
      <point x="437" y="417" type="curve"/>
      <point x="408" y="411"/>
      <point x="387" y="408"/>
      <point x="366" y="407" type="curve"/>
      <point x="350" y="349"/>
      <point x="312" y="225"/>
      <point x="269" y="71" type="curve" smooth="yes"/>
      <point x="256" y="24"/>
      <point x="268" y="-8"/>
      <point x="291" y="-8" type="curve" smooth="yes"/>
      <point x="340" y="-8"/>
      <point x="393" y="30"/>
      <point x="439" y="99" type="curve"/>
      <point x="423" y="114" type="line"/>
      <point x="390" y="77"/>
      <point x="352" y="46"/>
      <point x="335" y="46" type="curve" smooth="yes"/>
      <point x="321" y="46"/>
      <point x="327" y="86"/>
      <point x="342" y="141" type="curve" smooth="yes"/>
      <point x="361" y="214"/>
      <point x="401" y="319"/>
    </contour>
    <contour>
      <point x="167" y="413" type="curve" smooth="yes"/>
      <point x="128" y="413"/>
      <point x="78" y="372"/>
      <point x="29" y="297" type="curve"/>
      <point x="48" y="280" type="line"/>
      <point x="86" y="328"/>
      <point x="112" y="366"/>
      <point x="132" y="366" type="curve" smooth="yes"/>
      <point x="157" y="366"/>
      <point x="140" y="321"/>
      <point x="124" y="281" type="curve" smooth="yes"/>
      <point x="75" y="159" type="line" smooth="yes"/>
      <point x="32" y="52"/>
      <point x="40" y="-8"/>
      <point x="108" y="-8" type="curve" smooth="yes"/>
      <point x="184" y="-8"/>
      <point x="271" y="90"/>
      <point x="335" y="264" type="curve"/>
      <point x="360" y="383" type="line"/>
      <point x="293" y="182"/>
      <point x="195" y="47"/>
      <point x="142" y="44" type="curve" smooth="yes"/>
      <point x="99" y="42"/>
      <point x="107" y="85"/>
      <point x="139" y="167" type="curve" smooth="yes"/>
      <point x="203" y="329" type="line" smooth="yes"/>
      <point x="222" y="377"/>
      <point x="208" y="413"/>
    </contour>
  </outline>
</glyph>
<glyph name="x" format="2">
  <advance width="411"/>
  <unicode hex="0078"/>
  <anchor x="138" y="0" name="bottom"/>
  <anchor x="260" y="402" name="top"/>
  <outline>
    <contour>
      <point x="8" y="-9" type="curve" smooth="yes"/>
      <point x="53" y="-9"/>
      <point x="144" y="113"/>
      <point x="214" y="207" type="curve" smooth="yes"/>
      <point x="266" y="277"/>
      <point x="320" y="345"/>
      <point x="334" y="345" type="curve" smooth="yes"/>
      <point x="361" y="345"/>
      <point x="374" y="324"/>
      <point x="373" y="304" type="curve"/>
      <point x="425" y="366" type="line"/>
      <point x="411" y="394"/>
      <point x="388" y="414"/>
      <point x="371" y="414" type="curve" smooth="yes"/>
      <point x="336" y="414"/>
      <point x="240" y="290"/>
      <point x="164" y="192" type="curve" smooth="yes"/>
      <point x="113" y="126"/>
      <point x="63" y="64"/>
      <point x="54" y="64" type="curve" smooth="yes"/>
      <point x="42" y="64"/>
      <point x="35" y="87"/>
      <point x="28" y="106" type="curve"/>
      <point x="-34" y="59" type="line"/>
      <point x="-24" y="20"/>
      <point x="-6" y="-9"/>
    </contour>
    <contour>
      <point x="245" y="-9" type="curve" smooth="yes"/>
      <point x="283" y="-9"/>
      <point x="345" y="35"/>
      <point x="377" y="75" type="curve"/>
      <point x="356" y="96" type="line"/>
      <point x="339" y="74"/>
      <point x="302" y="49"/>
      <point x="281" y="49" type="curve" smooth="yes"/>
      <point x="272" y="49"/>
      <point x="254" y="113"/>
      <point x="241" y="188" type="curve" smooth="yes"/>
      <point x="222" y="291"/>
      <point x="199" y="414"/>
      <point x="165" y="414" type="curve" smooth="yes"/>
      <point x="133" y="414"/>
      <point x="71" y="366"/>
      <point x="32" y="320" type="curve"/>
      <point x="56" y="299" type="line"/>
      <point x="85" y="337"/>
      <point x="102" y="344"/>
      <point x="121" y="344" type="curve" smooth="yes"/>
      <point x="134" y="344"/>
      <point x="150" y="284"/>
      <point x="162" y="213" type="curve" smooth="yes"/>
      <point x="179" y="112"/>
      <point x="200" y="-9"/>
    </contour>
  </outline>
</glyph>
<glyph name="y" format="2">
  <advance width="421"/>
  <unicode hex="0079"/>
  <anchor x="166" y="0" name="bottom"/>
  <anchor x="260" y="402" name="top"/>
  <outline>
    <contour>
      <point x="68" y="-228" type="curve" smooth="yes"/>
      <point x="126" y="-228"/>
      <point x="216" y="-84"/>
      <point x="301" y="50" type="curve" smooth="yes"/>
      <point x="356" y="138"/>
      <point x="392" y="232"/>
      <point x="401" y="279" type="curve" smooth="yes"/>
      <point x="425" y="358"/>
      <point x="408" y="414"/>
      <point x="361" y="414" type="curve" smooth="yes"/>
      <point x="330" y="414"/>
      <point x="304" y="394"/>
      <point x="298" y="366" type="curve" smooth="yes"/>
      <point x="291" y="337"/>
      <point x="311" y="325"/>
      <point x="336" y="325" type="curve" smooth="yes"/>
      <point x="393" y="325"/>
      <point x="366" y="219"/>
      <point x="273" y="68" type="curve" smooth="yes"/>
      <point x="202" y="-48"/>
      <point x="119" y="-193"/>
      <point x="79" y="-193" type="curve" smooth="yes"/>
      <point x="59" y="-193"/>
      <point x="45" y="-179"/>
      <point x="53" y="-144" type="curve" smooth="yes"/>
      <point x="59" y="-126"/>
      <point x="54" y="-105"/>
      <point x="42" y="-105" type="curve" smooth="yes"/>
      <point x="6" y="-105"/>
      <point x="-14" y="-116"/>
      <point x="-20" y="-145" type="curve" smooth="yes"/>
      <point x="-32" y="-194"/>
      <point x="5" y="-228"/>
    </contour>
    <contour>
      <point x="17" y="300" type="curve"/>
      <point x="43" y="279" type="line"/>
      <point x="71" y="320"/>
      <point x="90" y="342"/>
      <point x="113" y="342" type="curve" smooth="yes"/>
      <point x="149" y="342"/>
      <point x="190" y="210"/>
      <point x="235" y="-14" type="curve"/>
      <point x="287" y="58" type="line"/>
      <point x="246" y="277"/>
      <point x="198" y="414"/>
      <point x="148" y="414" type="curve" smooth="yes"/>
      <point x="120" y="414"/>
      <point x="66" y="367"/>
    </contour>
  </outline>
</glyph>
<glyph name="exclamdown" format="2">
  <advance width="234"/>
  <unicode hex="00A1"/>
  <outline>
    <contour>
      <point x="184" y="468" type="curve" smooth="yes"/>
      <point x="161" y="468"/>
      <point x="140" y="449"/>
      <point x="130" y="426" type="curve" smooth="yes"/>
      <point x="119" y="403"/>
      <point x="133" y="384"/>
      <point x="160" y="384" type="curve" smooth="yes"/>
      <point x="183" y="384"/>
      <point x="207" y="403"/>
      <point x="214" y="426" type="curve" smooth="yes"/>
      <point x="220" y="449"/>
      <point x="207" y="468"/>
    </contour>
    <contour>
      <point x="152" y="284" type="curve"/>
      <point x="110" y="276" type="line"/>
      <point x="74" y="142"/>
      <point x="21" y="-14"/>
      <point x="-39" y="-170" type="curve"/>
      <point x="53" y="-158" type="line"/>
      <point x="78" y="-6"/>
      <point x="118" y="154"/>
    </contour>
  </outline>
</glyph>
<glyph name="gravecomb" format="2">
  <unicode hex="0300"/>
  <anchor x="155" y="399" name="_top"/>
  <anchor x="155" y="628" name="top"/>
  <outline>
    <contour>
      <point x="254" y="453" type="line"/>
      <point x="144" y="645" type="line"/>
      <point x="138" y="655"/>
      <point x="117" y="652"/>
      <point x="93" y="636" type="curve" smooth="yes"/>
      <point x="73" y="620"/>
      <point x="52" y="603"/>
      <point x="60" y="594" type="curve"/>
      <point x="235" y="439" type="line"/>
    </contour>
  </outline>
</glyph>
<glyph name="acutecomb" format="2">
  <unicode hex="0301"/>
  <anchor x="143" y="399" name="_top"/>
  <anchor x="143" y="628" name="top"/>
  <outline>
    <contour>
      <point x="34" y="443" type="line"/>
      <point x="55" y="427" type="line"/>
      <point x="248" y="599" type="line"/>
      <point x="256" y="609"/>
      <point x="234" y="627"/>
      <point x="211" y="645" type="curve" smooth="yes"/>
      <point x="184" y="662"/>
      <point x="162" y="667"/>
      <point x="155" y="655" type="curve"/>
    </contour>
  </outline>
</glyph>
<glyph name="circumflexcomb" format="2">
  <unicode hex="0302"/>
  <anchor x="151" y="399" name="_top"/>
  <anchor x="151" y="621" name="top"/>
  <outline>
    <contour>
      <point x="286" y="426" type="line"/>
      <point x="304" y="441" type="line"/>
      <point x="189" y="629" type="line" smooth="yes"/>
      <point x="177" y="649"/>
      <point x="125" y="649"/>
      <point x="113" y="629" type="curve" smooth="yes"/>
      <point x="-2" y="441" type="line"/>
      <point x="16" y="426" type="line"/>
      <point x="151" y="561" type="line"/>
    </contour>
  </outline>
</glyph>
<glyph name="tildecomb" format="2">
  <unicode hex="0303"/>
  <anchor x="157" y="399" name="_top"/>
  <anchor x="157" y="627" name="top"/>
  <outline>
    <contour>
      <point x="338" y="638" type="line"/>
      <point x="296" y="568"/>
      <point x="287" y="501"/>
      <point x="198" y="501" type="curve"/>
      <point x="120" y="501" type="line"/>
      <point x="64" y="501"/>
      <point x="60" y="487"/>
      <point x="-3" y="428" type="curve"/>
      <point x="-24" y="442" type="line"/>
      <point x="19" y="511"/>
      <point x="27" y="580"/>
      <point x="116" y="580" type="curve"/>
      <point x="194" y="580" type="line"/>
      <point x="250" y="580"/>
      <point x="254" y="594"/>
      <point x="317" y="651" type="curve"/>
    </contour>
  </outline>
</glyph>
<glyph name="hookabovecomb" format="2">
  <unicode hex="0309"/>
  <anchor x="135" y="399" name="_top"/>
  <anchor x="135" y="635" name="top"/>
  <outline>
    <contour>
      <point x="124" y="431" type="line"/>
      <point x="206" y="455"/>
      <point x="238" y="515"/>
      <point x="211" y="589" type="curve" smooth="yes"/>
      <point x="188" y="653"/>
      <point x="124" y="674"/>
      <point x="46" y="646" type="curve"/>
      <point x="60" y="607" type="line"/>
      <point x="102" y="621"/>
      <point x="138" y="607"/>
      <point x="152" y="566" type="curve" smooth="yes"/>
      <point x="168" y="526"/>
      <point x="151" y="489"/>
      <point x="111" y="470" type="curve"/>
    </contour>
  </outline>
</glyph>
<glyph name="ringcomb" format="2">
  <unicode hex="030A"/>
  <anchor x="144" y="399" name="_top"/>
  <anchor x="144" y="646" name="top"/>
  <outline>
    <contour>
      <point x="144" y="445" type="curve" smooth="yes"/>
      <point x="210" y="445"/>
      <point x="256" y="492"/>
      <point x="256" y="558" type="curve" smooth="yes"/>
      <point x="256" y="625"/>
      <point x="210" y="670"/>
      <point x="144" y="670" type="curve" smooth="yes"/>
      <point x="78" y="670"/>
      <point x="32" y="625"/>
      <point x="32" y="558" type="curve" smooth="yes"/>
      <point x="32" y="492"/>
      <point x="78" y="445"/>
    </contour>
    <contour>
      <point x="144" y="490" type="curve" smooth="yes"/>
      <point x="106" y="490"/>
      <point x="78" y="519"/>
      <point x="78" y="558" type="curve" smooth="yes"/>
      <point x="78" y="596"/>
      <point x="106" y="625"/>
      <point x="144" y="625" type="curve" smooth="yes"/>
      <point x="182" y="625"/>
      <point x="210" y="596"/>
      <point x="210" y="558" type="curve" smooth="yes"/>
      <point x="210" y="519"/>
      <point x="182" y="490"/>
    </contour>
  </outline>
</glyph>
<glyph name="hungarumlautcomb" format="2">
  <unicode hex="030B"/>
  <anchor x="185" y="399" name="_top"/>
  <anchor x="185" y="630" name="top"/>
  <outline>
    <contour>
      <point x="21" y="417" type="line"/>
      <point x="43" y="407" type="line"/>
      <point x="184" y="613" type="line"/>
      <point x="190" y="623"/>
      <point x="167" y="636"/>
      <point x="144" y="649" type="curve" smooth="yes"/>
      <point x="118" y="659"/>
      <point x="96" y="660"/>
      <point x="93" y="649" type="curve"/>
    </contour>
    <contour>
      <point x="184" y="417" type="line"/>
      <point x="206" y="407" type="line"/>
      <point x="348" y="613" type="line"/>
      <point x="353" y="623"/>
      <point x="330" y="636"/>
      <point x="307" y="649" type="curve" smooth="yes"/>
      <point x="281" y="659"/>
      <point x="260" y="660"/>
      <point x="256" y="649" type="curve"/>
    </contour>
  </outline>
</glyph>
<glyph name="dotbelowcomb" format="2">
  <unicode hex="0323"/>
  <anchor x="180" y="0" name="_bottom"/>
  <anchor x="180" y="-167" name="bottom"/>
  <outline>
    <contour>
      <point x="179" y="-179" type="curve" smooth="yes"/>
      <point x="209" y="-179"/>
      <point x="235" y="-155"/>
      <point x="235" y="-125" type="curve" smooth="yes"/>
      <point x="235" y="-95"/>
      <point x="209" y="-69"/>
      <point x="179" y="-69" type="curve" smooth="yes"/>
      <point x="149" y="-69"/>
      <point x="125" y="-95"/>
      <point x="125" y="-125" type="curve" smooth="yes"/>
      <point x="125" y="-155"/>
      <point x="149" y="-179"/>
    </contour>
  </outline>
</glyph>
<glyph name="commaaccentcomb" format="2">
  <unicode hex="0326"/>
  <anchor x="194" y="0" name="_bottom"/>
  <anchor x="194" y="-216" name="bottom"/>
  <outline>
    <contour>
      <point x="132" y="-236" type="curve"/>
      <point x="156" y="-241" type="line"/>
      <point x="234" y="-149"/>
      <point x="264" y="-103"/>
      <point x="250" y="-11" type="curve"/>
      <point x="152" y="-11" type="line"/>
      <point x="192" y="-102"/>
      <point x="184" y="-145"/>
    </contour>
  </outline>
</glyph>
<glyph name="ogonekcomb" format="2">
  <unicode hex="0328"/>
  <anchor x="262" y="2" name="_ogonek"/>
  <outline>
    <contour>
      <point x="176" y="-229" type="curve" smooth="yes"/>
      <point x="294" y="-229"/>
      <point x="301" y="-158"/>
      <point x="218" y="-158" type="curve" smooth="yes"/>
      <point x="176" y="-158"/>
      <point x="147" y="-136"/>
      <point x="147" y="-107" type="curve" smooth="yes"/>
      <point x="147" y="-86"/>
      <point x="170" y="-29"/>
      <point x="282" y="30" type="curve"/>
      <point x="226" y="30" type="line"/>
      <point x="103" y="-40"/>
      <point x="78" y="-115"/>
      <point x="78" y="-151" type="curve" smooth="yes"/>
      <point x="78" y="-197"/>
      <point x="119" y="-229"/>
    </contour>
  </outline>
</glyph>
<glyph name="caroncomb.alt.case" format="2">
  <anchor x="11" y="694" name="_topright"/>
  <outline>
    <contour>
      <point x="16" y="854" type="line"/>
      <point x="-2" y="839" type="line"/>
      <point x="117" y="651" type="line" smooth="yes"/>
      <point x="129" y="631"/>
      <point x="173" y="631"/>
      <point x="185" y="651" type="curve" smooth="yes"/>
      <point x="304" y="839" type="line"/>
      <point x="286" y="854" type="line"/>
      <point x="151" y="732" type="line"/>
    </contour>
  </outline>
</glyph>
<glyph name="caroncomb.case" format="2">
  <anchor x="151" y="616" name="_top"/>
  <anchor x="151" y="794" name="top"/>
  <outline>
    <contour>
      <point x="-7" y="813" type="line"/>
      <point x="-25" y="797" type="line"/>
      <point x="117" y="656" type="line" smooth="yes"/>
      <point x="133" y="639"/>
      <point x="169" y="639"/>
      <point x="185" y="656" type="curve" smooth="yes"/>
      <point x="327" y="797" type="line"/>
      <point x="309" y="813" type="line"/>
      <point x="151" y="736" type="line"/>
    </contour>
  </outline>
</glyph>
<glyph name="cedillacomb.case" format="2">
  <anchor x="159" y="0" name="_bottom"/>
  <anchor x="159" y="-234" name="bottom"/>
  <outline>
    <contour>
      <point x="112" y="40" type="line"/>
      <point x="91" y="-16"/>
      <point x="69" y="-89"/>
      <point x="69" y="-89" type="curve" smooth="yes"/>
      <point x="65" y="-96"/>
      <point x="72" y="-103"/>
      <point x="86" y="-103" type="curve" smooth="yes"/>
      <point x="159" y="-103"/>
      <point x="210" y="-125"/>
      <point x="210" y="-156" type="curve" smooth="yes"/>
      <point x="210" y="-214"/>
      <point x="143" y="-233"/>
      <point x="48" y="-202" type="curve" smooth="yes"/>
      <point x="35" y="-199"/>
      <point x="26" y="-214"/>
      <point x="26" y="-238" type="curve" smooth="yes"/>
      <point x="26" y="-246"/>
      <point x="35" y="-252"/>
      <point x="49" y="-255" type="curve" smooth="yes"/>
      <point x="191" y="-285"/>
      <point x="291" y="-242"/>
      <point x="291" y="-151" type="curve" smooth="yes"/>
      <point x="291" y="-89"/>
      <point x="236" y="-44"/>
      <point x="158" y="-44" type="curve"/>
      <point x="191" y="41" type="line"/>
    </contour>
  </outline>
</glyph>
<glyph name="commaaccentcomb.case" format="2">
  <anchor x="194" y="0" name="_bottom"/>
  <anchor x="194" y="-216" name="bottom"/>
  <outline>
    <contour>
      <point x="132" y="-241" type="curve"/>
      <point x="156" y="-246" type="line"/>
      <point x="234" y="-154"/>
      <point x="264" y="-62"/>
      <point x="250" y="30" type="curve"/>
      <point x="152" y="30" type="line"/>
      <point x="192" y="-61"/>
      <point x="184" y="-150"/>
    </contour>
  </outline>
</glyph>
<glyph name="commaaccentcomb.sc" format="2">
  <anchor x="194" y="0" name="_bottom"/>
  <anchor x="194" y="-216" name="bottom"/>
  <outline>
    <contour>
      <point x="146" y="-212" type="curve"/>
      <point x="165" y="-216" type="line"/>
      <point x="226" y="-144"/>
      <point x="250" y="-108"/>
      <point x="239" y="-36" type="curve"/>
      <point x="162" y="-36" type="line"/>
      <point x="193" y="-107"/>
      <point x="187" y="-141"/>
    </contour>
  </outline>
</glyph>
<glyph name="commaturnedabovecomb.case" format="2">
  <anchor x="190" y="616" name="_top"/>
  <anchor x="190" y="830" name="top"/>
  <outline>
    <contour>
      <point x="247" y="831" type="curve"/>
      <point x="238" y="855" type="line"/>
      <point x="170" y="828"/>
      <point x="125" y="762"/>
      <point x="125" y="698" type="curve" smooth="yes"/>
      <point x="125" y="656"/>
      <point x="154" y="623"/>
      <point x="199" y="623" type="curve" smooth="yes"/>
      <point x="232" y="623"/>
      <point x="255" y="645"/>
      <point x="255" y="671" type="curve" smooth="yes"/>
      <point x="255" y="691"/>
      <point x="242" y="710"/>
      <point x="224" y="710" type="curve" smooth="yes"/>
      <point x="208" y="710"/>
      <point x="205" y="703"/>
      <point x="191" y="703" type="curve" smooth="yes"/>
      <point x="179" y="703"/>
      <point x="172" y="719"/>
      <point x="172" y="739" type="curve" smooth="yes"/>
      <point x="172" y="784"/>
      <point x="204" y="819"/>
    </contour>
  </outline>
</glyph>
<glyph name="dieresiscomb.case.001" format="2">
  <anchor x="150" y="616" name="_top"/>
  <anchor x="150" y="796" name="top"/>
  <outline>
    <contour>
      <point x="10" y="664" type="curve" smooth="yes"/>
      <point x="56" y="664"/>
      <point x="87" y="695"/>
      <point x="87" y="738" type="curve" smooth="yes"/>
      <point x="87" y="781"/>
      <point x="56" y="812"/>
      <point x="10" y="812" type="curve" smooth="yes"/>
      <point x="-39" y="812"/>
      <point x="-71" y="781"/>
      <point x="-71" y="738" type="curve" smooth="yes"/>
      <point x="-71" y="695"/>
      <point x="-39" y="664"/>
    </contour>
    <contour>
      <point x="290" y="664" type="curve" smooth="yes"/>
      <point x="339" y="664"/>
      <point x="371" y="695"/>
      <point x="371" y="738" type="curve" smooth="yes"/>
      <point x="371" y="781"/>
      <point x="339" y="812"/>
      <point x="290" y="812" type="curve" smooth="yes"/>
      <point x="244" y="812"/>
      <point x="213" y="781"/>
      <point x="213" y="738" type="curve" smooth="yes"/>
      <point x="213" y="695"/>
      <point x="244" y="664"/>
    </contour>
  </outline>
</glyph>
<glyph name="gravecomb.case" format="2">
  <anchor x="168" y="616" name="_top"/>
  <anchor x="168" y="817" name="top"/>
  <outline>
    <contour>
      <point x="310" y="662" type="line"/>
      <point x="88" y="835" type="line"/>
      <point x="77" y="844"/>
      <point x="57" y="829"/>
      <point x="40" y="801" type="curve" smooth="yes"/>
      <point x="25" y="774"/>
      <point x="23" y="751"/>
      <point x="36" y="746" type="curve"/>
      <point x="297" y="638" type="line"/>
    </contour>
  </outline>
</glyph>
<glyph name="hungarumlautcomb.case" format="2">
  <anchor x="185" y="616" name="_top"/>
  <anchor x="185" y="827" name="top"/>
  <outline>
    <contour>
      <point x="21" y="614" type="line"/>
      <point x="43" y="604" type="line"/>
      <point x="184" y="810" type="line"/>
      <point x="190" y="820"/>
      <point x="167" y="833"/>
      <point x="144" y="846" type="curve" smooth="yes"/>
      <point x="118" y="856"/>
      <point x="96" y="857"/>
      <point x="93" y="846" type="curve"/>
    </contour>
    <contour>
      <point x="184" y="614" type="line"/>
      <point x="206" y="604" type="line"/>
      <point x="348" y="810" type="line"/>
      <point x="353" y="820"/>
      <point x="330" y="833"/>
      <point x="307" y="846" type="curve" smooth="yes"/>
      <point x="281" y="856"/>
      <point x="260" y="857"/>
      <point x="256" y="846" type="curve"/>
    </contour>
  </outline>
</glyph>
<glyph name="macroncomb.sc" format="2">
  <anchor x="180" y="399" name="_top"/>
  <anchor x="180" y="538" name="top"/>
  <outline>
    <contour>
      <point x="55" y="538" type="line"/>
      <point x="55" y="493" type="line"/>
      <point x="305" y="493" type="line"/>
      <point x="305" y="538" type="line"/>
    </contour>
  </outline>
</glyph>
<glyph name="ogonekcomb.case" format="2">
  <anchor x="273" y="2" name="_ogonek"/>
  <outline>
    <contour>
      <point x="197" y="-255" type="curve" smooth="yes"/>
      <point x="314" y="-255"/>
      <point x="322" y="-177"/>
      <point x="239" y="-177" type="curve" smooth="yes"/>
      <point x="197" y="-177"/>
      <point x="167" y="-147"/>
      <point x="167" y="-103" type="curve" smooth="yes"/>
      <point x="167" y="-70"/>
      <point x="204" y="-14"/>
      <point x="257" y="33" type="curve"/>
      <point x="185" y="33" type="line"/>
      <point x="121" y="-24"/>
      <point x="75" y="-100"/>
      <point x="75" y="-148" type="curve" smooth="yes"/>
      <point x="75" y="-211"/>
      <point x="125" y="-255"/>
    </contour>
  </outline>
</glyph>
<glyph name="ringcomb.case" format="2">
  <anchor x="144" y="616" name="_top"/>
  <anchor x="144" y="830" name="top"/>
  <outline>
    <contour>
      <point x="144" y="638" type="curve" smooth="yes"/>
      <point x="221" y="638"/>
      <point x="274" y="682"/>
      <point x="274" y="746" type="curve" smooth="yes"/>
      <point x="274" y="809"/>
      <point x="221" y="853"/>
      <point x="144" y="853" type="curve" smooth="yes"/>
      <point x="67" y="853"/>
      <point x="14" y="809"/>
      <point x="14" y="746" type="curve" smooth="yes"/>
      <point x="14" y="682"/>
      <point x="67" y="638"/>
    </contour>
    <contour>
      <point x="144" y="691" type="curve" smooth="yes"/>
      <point x="99" y="691"/>
      <point x="67" y="714"/>
      <point x="67" y="746" type="curve" smooth="yes"/>
      <point x="67" y="778"/>
      <point x="99" y="800"/>
      <point x="144" y="800" type="curve" smooth="yes"/>
      <point x="189" y="800"/>
      <point x="221" y="778"/>
      <point x="221" y="746" type="curve" smooth="yes"/>
      <point x="221" y="714"/>
      <point x="189" y="691"/>
    </contour>
  </outline>
</glyph>
<glyph name="ringcomb.sc" format="2">
  <anchor x="144" y="399" name="_top"/>
  <anchor x="144" y="646" name="top"/>
  <outline>
    <contour>
      <point x="144" y="469" type="curve" smooth="yes"/>
      <point x="196" y="469"/>
      <point x="232" y="506"/>
      <point x="232" y="558" type="curve" smooth="yes"/>
      <point x="232" y="610"/>
      <point x="196" y="646"/>
      <point x="144" y="646" type="curve" smooth="yes"/>
      <point x="92" y="646"/>
      <point x="56" y="610"/>
      <point x="56" y="558" type="curve" smooth="yes"/>
      <point x="56" y="506"/>
      <point x="92" y="469"/>
    </contour>
    <contour>
      <point x="144" y="505" type="curve" smooth="yes"/>
      <point x="114" y="505"/>
      <point x="92" y="527"/>
      <point x="92" y="558" type="curve" smooth="yes"/>
      <point x="92" y="588"/>
      <point x="114" y="610"/>
      <point x="144" y="610" type="curve" smooth="yes"/>
      <point x="174" y="610"/>
      <point x="196" y="588"/>
      <point x="196" y="558" type="curve" smooth="yes"/>
      <point x="196" y="527"/>
      <point x="174" y="505"/>
    </contour>
  </outline>
</glyph>
<glyph name="tonos.case" format="2">
  <advance width="180"/>
  <anchor x="161" y="694" name="_topleft"/>
  <outline>
    <contour>
      <point x="31" y="487" type="line"/>
      <point x="56" y="482" type="line"/>
      <point x="156" y="705" type="line"/>
      <point x="160" y="718"/>
      <point x="134" y="726"/>
      <point x="107" y="732" type="curve" smooth="yes"/>
      <point x="77" y="736"/>
      <point x="56" y="731"/>
      <point x="55" y="719" type="curve"/>
    </contour>
  </outline>
</glyph>
